<mxfile host="app.diagrams.net" agent="Mozilla/5.0 (Windows NT 10.0; Win64; x64) AppleWebKit/537.36 (KHTML, like Gecko) Chrome/134.0.0.0 Safari/537.36" version="26.1.1">
  <diagram name="Page-1" id="c7488fd3-1785-93aa-aadb-54a6760d102a">
    <mxGraphModel dx="1126" dy="1097" grid="1" gridSize="10" guides="1" tooltips="1" connect="1" arrows="1" fold="1" page="1" pageScale="1" pageWidth="1100" pageHeight="850" background="none" math="0" shadow="0">
      <root>
        <mxCell id="0" />
        <mxCell id="1" parent="0" />
        <mxCell id="2b4e8129b02d487f-1" value="&lt;font style=&quot;font-size: 14px;&quot;&gt;Project Flowchart&lt;/font&gt;" style="swimlane;html=1;childLayout=stackLayout;horizontal=1;startSize=20;horizontalStack=0;rounded=0;shadow=0;labelBackgroundColor=none;strokeWidth=1;fontFamily=Verdana;fontSize=8;align=center;" parent="1" vertex="1">
          <mxGeometry x="180" y="20" width="680" height="470" as="geometry" />
        </mxCell>
        <mxCell id="2b4e8129b02d487f-2" value="Data Collection" style="swimlane;html=1;startSize=20;horizontal=0;" parent="2b4e8129b02d487f-1" vertex="1">
          <mxGeometry y="20" width="680" height="150" as="geometry" />
        </mxCell>
        <mxCell id="QxLrBU9hn2ij7wgbxAw1-39" value="" style="edgeStyle=orthogonalEdgeStyle;rounded=0;orthogonalLoop=1;jettySize=auto;html=1;" edge="1" parent="2b4e8129b02d487f-2" source="2b4e8129b02d487f-6" target="2b4e8129b02d487f-9">
          <mxGeometry relative="1" as="geometry" />
        </mxCell>
        <mxCell id="2b4e8129b02d487f-6" value="&lt;font style=&quot;font-size: 10px;&quot;&gt;2022 BRFSS Data extraction&lt;/font&gt;" style="rounded=1;whiteSpace=wrap;html=1;shadow=0;labelBackgroundColor=none;strokeWidth=1;fontFamily=Verdana;fontSize=8;align=center;" parent="2b4e8129b02d487f-2" vertex="1">
          <mxGeometry x="170" y="19.5" width="90" height="37" as="geometry" />
        </mxCell>
        <mxCell id="QxLrBU9hn2ij7wgbxAw1-41" value="" style="edgeStyle=orthogonalEdgeStyle;rounded=0;orthogonalLoop=1;jettySize=auto;html=1;" edge="1" parent="2b4e8129b02d487f-2" source="2b4e8129b02d487f-9" target="QxLrBU9hn2ij7wgbxAw1-38">
          <mxGeometry relative="1" as="geometry" />
        </mxCell>
        <mxCell id="2b4e8129b02d487f-9" value="&lt;font style=&quot;font-size: 10px;&quot;&gt;Data transformation&lt;/font&gt;" style="rounded=1;whiteSpace=wrap;html=1;shadow=0;labelBackgroundColor=none;strokeWidth=1;fontFamily=Verdana;fontSize=8;align=center;" parent="2b4e8129b02d487f-2" vertex="1">
          <mxGeometry x="300" y="19.5" width="100" height="37" as="geometry" />
        </mxCell>
        <mxCell id="QxLrBU9hn2ij7wgbxAw1-141" style="edgeStyle=orthogonalEdgeStyle;rounded=0;orthogonalLoop=1;jettySize=auto;html=1;entryX=0;entryY=0.5;entryDx=0;entryDy=0;" edge="1" parent="2b4e8129b02d487f-2" source="QxLrBU9hn2ij7wgbxAw1-1" target="2b4e8129b02d487f-6">
          <mxGeometry relative="1" as="geometry" />
        </mxCell>
        <mxCell id="QxLrBU9hn2ij7wgbxAw1-142" style="edgeStyle=orthogonalEdgeStyle;rounded=0;orthogonalLoop=1;jettySize=auto;html=1;entryX=0;entryY=0.5;entryDx=0;entryDy=0;" edge="1" parent="2b4e8129b02d487f-2" source="QxLrBU9hn2ij7wgbxAw1-1" target="QxLrBU9hn2ij7wgbxAw1-31">
          <mxGeometry relative="1" as="geometry" />
        </mxCell>
        <mxCell id="QxLrBU9hn2ij7wgbxAw1-1" value="&lt;font style=&quot;font-size: 10px;&quot;&gt;Start&lt;/font&gt;" style="ellipse;whiteSpace=wrap;html=1;" vertex="1" parent="2b4e8129b02d487f-2">
          <mxGeometry x="30" y="60" width="100" height="30" as="geometry" />
        </mxCell>
        <mxCell id="QxLrBU9hn2ij7wgbxAw1-40" value="" style="edgeStyle=orthogonalEdgeStyle;rounded=0;orthogonalLoop=1;jettySize=auto;html=1;" edge="1" parent="2b4e8129b02d487f-2" source="QxLrBU9hn2ij7wgbxAw1-31" target="QxLrBU9hn2ij7wgbxAw1-37">
          <mxGeometry relative="1" as="geometry" />
        </mxCell>
        <mxCell id="QxLrBU9hn2ij7wgbxAw1-31" value="&lt;font style=&quot;font-size: 10px;&quot;&gt;&lt;br&gt;&lt;span style=&quot;color: rgb(0, 0, 0); font-family: Verdana; font-style: normal; font-variant-ligatures: normal; font-variant-caps: normal; font-weight: 400; letter-spacing: normal; orphans: 2; text-align: center; text-indent: 0px; text-transform: none; widows: 2; word-spacing: 0px; -webkit-text-stroke-width: 0px; white-space: normal; background-color: rgb(251, 251, 251); text-decoration-thickness: initial; text-decoration-style: initial; text-decoration-color: initial; float: none; display: inline !important;&quot;&gt;2023 BRFSS Data extraction&lt;/span&gt;&lt;/font&gt;&lt;div&gt;&lt;br&gt;&lt;/div&gt;" style="rounded=1;whiteSpace=wrap;html=1;shadow=0;labelBackgroundColor=none;strokeWidth=1;fontFamily=Verdana;fontSize=8;align=center;" vertex="1" parent="2b4e8129b02d487f-2">
          <mxGeometry x="170" y="90" width="90" height="37" as="geometry" />
        </mxCell>
        <mxCell id="QxLrBU9hn2ij7wgbxAw1-42" value="" style="edgeStyle=orthogonalEdgeStyle;rounded=0;orthogonalLoop=1;jettySize=auto;html=1;" edge="1" parent="2b4e8129b02d487f-2" source="QxLrBU9hn2ij7wgbxAw1-37" target="QxLrBU9hn2ij7wgbxAw1-38">
          <mxGeometry relative="1" as="geometry" />
        </mxCell>
        <mxCell id="QxLrBU9hn2ij7wgbxAw1-37" value="&lt;font style=&quot;font-size: 10px;&quot;&gt;Data transformation&lt;/font&gt;" style="rounded=1;whiteSpace=wrap;html=1;shadow=0;labelBackgroundColor=none;strokeWidth=1;fontFamily=Verdana;fontSize=8;align=center;" vertex="1" parent="2b4e8129b02d487f-2">
          <mxGeometry x="300" y="90" width="100" height="37" as="geometry" />
        </mxCell>
        <mxCell id="QxLrBU9hn2ij7wgbxAw1-38" value="&lt;font style=&quot;font-size: 10px;&quot;&gt;Integrate into single raw dataset&lt;/font&gt;" style="rounded=1;whiteSpace=wrap;html=1;shadow=0;labelBackgroundColor=none;strokeWidth=1;fontFamily=Verdana;fontSize=8;align=center;" vertex="1" parent="2b4e8129b02d487f-2">
          <mxGeometry x="520" y="53.25" width="100" height="43.5" as="geometry" />
        </mxCell>
        <mxCell id="2b4e8129b02d487f-3" value="Cleaning" style="swimlane;html=1;startSize=20;horizontal=0;" parent="2b4e8129b02d487f-1" vertex="1">
          <mxGeometry y="170" width="680" height="150" as="geometry" />
        </mxCell>
        <mxCell id="QxLrBU9hn2ij7wgbxAw1-137" style="edgeStyle=orthogonalEdgeStyle;rounded=0;orthogonalLoop=1;jettySize=auto;html=1;entryX=0;entryY=0.5;entryDx=0;entryDy=0;" edge="1" parent="2b4e8129b02d487f-3" source="2b4e8129b02d487f-12" target="QxLrBU9hn2ij7wgbxAw1-69">
          <mxGeometry relative="1" as="geometry" />
        </mxCell>
        <mxCell id="2b4e8129b02d487f-12" value="&lt;font style=&quot;font-size: 10px;&quot;&gt;Data quality check&lt;/font&gt;" style="rounded=1;whiteSpace=wrap;html=1;shadow=0;labelBackgroundColor=none;strokeWidth=1;fontFamily=Verdana;fontSize=8;align=center;" parent="2b4e8129b02d487f-3" vertex="1">
          <mxGeometry x="30" y="56.5" width="100" height="37" as="geometry" />
        </mxCell>
        <mxCell id="QxLrBU9hn2ij7wgbxAw1-136" style="edgeStyle=orthogonalEdgeStyle;rounded=0;orthogonalLoop=1;jettySize=auto;html=1;entryX=0;entryY=0.5;entryDx=0;entryDy=0;" edge="1" parent="2b4e8129b02d487f-3" source="QxLrBU9hn2ij7wgbxAw1-69" target="QxLrBU9hn2ij7wgbxAw1-70">
          <mxGeometry relative="1" as="geometry" />
        </mxCell>
        <mxCell id="QxLrBU9hn2ij7wgbxAw1-69" value="&lt;font style=&quot;font-size: 10px;&quot;&gt;Data Cleaning&lt;/font&gt;" style="rounded=1;whiteSpace=wrap;html=1;shadow=0;labelBackgroundColor=none;strokeWidth=1;fontFamily=Verdana;fontSize=8;align=center;" vertex="1" parent="2b4e8129b02d487f-3">
          <mxGeometry x="180" y="58.25" width="90" height="33.5" as="geometry" />
        </mxCell>
        <mxCell id="QxLrBU9hn2ij7wgbxAw1-145" style="edgeStyle=orthogonalEdgeStyle;rounded=0;orthogonalLoop=1;jettySize=auto;html=1;entryX=0;entryY=0.5;entryDx=0;entryDy=0;" edge="1" parent="2b4e8129b02d487f-3" source="QxLrBU9hn2ij7wgbxAw1-70" target="QxLrBU9hn2ij7wgbxAw1-140">
          <mxGeometry relative="1" as="geometry" />
        </mxCell>
        <mxCell id="QxLrBU9hn2ij7wgbxAw1-146" value="Yes" style="edgeLabel;html=1;align=center;verticalAlign=middle;resizable=0;points=[];" vertex="1" connectable="0" parent="QxLrBU9hn2ij7wgbxAw1-145">
          <mxGeometry x="-0.0727" y="2" relative="1" as="geometry">
            <mxPoint as="offset" />
          </mxGeometry>
        </mxCell>
        <mxCell id="QxLrBU9hn2ij7wgbxAw1-70" value="&lt;font style=&quot;font-size: 10px;&quot;&gt;Is the dataset clean?&lt;/font&gt;" style="rhombus;whiteSpace=wrap;html=1;" vertex="1" parent="2b4e8129b02d487f-3">
          <mxGeometry x="360" y="50" width="130" height="49.25" as="geometry" />
        </mxCell>
        <mxCell id="QxLrBU9hn2ij7wgbxAw1-140" value="&lt;font style=&quot;font-size: 10px;&quot;&gt;Export clean dataset&lt;/font&gt;" style="rounded=1;whiteSpace=wrap;html=1;shadow=0;labelBackgroundColor=none;strokeWidth=1;fontFamily=Verdana;fontSize=8;align=center;" vertex="1" parent="2b4e8129b02d487f-3">
          <mxGeometry x="550" y="56.12" width="80" height="37" as="geometry" />
        </mxCell>
        <mxCell id="QxLrBU9hn2ij7wgbxAw1-43" style="edgeStyle=orthogonalEdgeStyle;rounded=0;orthogonalLoop=1;jettySize=auto;html=1;entryX=0.5;entryY=0;entryDx=0;entryDy=0;" edge="1" parent="2b4e8129b02d487f-1" source="QxLrBU9hn2ij7wgbxAw1-38" target="2b4e8129b02d487f-12">
          <mxGeometry relative="1" as="geometry">
            <Array as="points">
              <mxPoint x="570" y="160" />
              <mxPoint x="85" y="160" />
            </Array>
          </mxGeometry>
        </mxCell>
        <mxCell id="QxLrBU9hn2ij7wgbxAw1-82" value="" style="edgeStyle=orthogonalEdgeStyle;rounded=0;html=1;labelBackgroundColor=none;startArrow=none;startFill=0;startSize=5;endArrow=classicThin;endFill=1;endSize=5;jettySize=auto;orthogonalLoop=1;strokeWidth=1;fontFamily=Verdana;fontSize=8;exitX=0.5;exitY=1;exitDx=0;exitDy=0;entryX=0.5;entryY=0;entryDx=0;entryDy=0;" edge="1" parent="2b4e8129b02d487f-1" source="QxLrBU9hn2ij7wgbxAw1-70" target="QxLrBU9hn2ij7wgbxAw1-128">
          <mxGeometry x="-0.5006" y="6" relative="1" as="geometry">
            <mxPoint as="offset" />
            <mxPoint x="410" y="290" as="sourcePoint" />
            <mxPoint x="40" y="390" as="targetPoint" />
            <Array as="points">
              <mxPoint x="425" y="310" />
              <mxPoint x="80" y="310" />
            </Array>
          </mxGeometry>
        </mxCell>
        <mxCell id="QxLrBU9hn2ij7wgbxAw1-127" value="No" style="edgeLabel;html=1;align=center;verticalAlign=middle;resizable=0;points=[];" vertex="1" connectable="0" parent="QxLrBU9hn2ij7wgbxAw1-82">
          <mxGeometry x="-0.9265" y="2" relative="1" as="geometry">
            <mxPoint as="offset" />
          </mxGeometry>
        </mxCell>
        <mxCell id="QxLrBU9hn2ij7wgbxAw1-130" style="edgeStyle=orthogonalEdgeStyle;rounded=0;orthogonalLoop=1;jettySize=auto;html=1;entryX=0.5;entryY=1;entryDx=0;entryDy=0;" edge="1" parent="2b4e8129b02d487f-1" source="QxLrBU9hn2ij7wgbxAw1-75" target="QxLrBU9hn2ij7wgbxAw1-69">
          <mxGeometry relative="1" as="geometry">
            <Array as="points">
              <mxPoint x="305" y="330" />
              <mxPoint x="205" y="330" />
            </Array>
          </mxGeometry>
        </mxCell>
        <mxCell id="2b4e8129b02d487f-4" value="EDA" style="swimlane;html=1;startSize=20;horizontal=0;" parent="2b4e8129b02d487f-1" vertex="1">
          <mxGeometry y="320" width="680" height="150" as="geometry" />
        </mxCell>
        <mxCell id="QxLrBU9hn2ij7wgbxAw1-138" style="edgeStyle=orthogonalEdgeStyle;rounded=0;orthogonalLoop=1;jettySize=auto;html=1;entryX=0;entryY=0.5;entryDx=0;entryDy=0;" edge="1" parent="2b4e8129b02d487f-4" source="QxLrBU9hn2ij7wgbxAw1-74" target="QxLrBU9hn2ij7wgbxAw1-75">
          <mxGeometry relative="1" as="geometry" />
        </mxCell>
        <mxCell id="QxLrBU9hn2ij7wgbxAw1-74" value="&lt;font style=&quot;font-size: 10px;&quot;&gt;Preliminary EDA&lt;/font&gt;" style="rounded=1;whiteSpace=wrap;html=1;shadow=0;labelBackgroundColor=none;strokeWidth=1;fontFamily=Verdana;fontSize=8;align=center;" vertex="1" parent="2b4e8129b02d487f-4">
          <mxGeometry x="170" y="23" width="100" height="37" as="geometry" />
        </mxCell>
        <mxCell id="QxLrBU9hn2ij7wgbxAw1-75" value="&lt;font style=&quot;font-size: 10px;&quot;&gt;EDA insights&lt;/font&gt;" style="rounded=1;whiteSpace=wrap;html=1;shadow=0;labelBackgroundColor=none;strokeWidth=1;fontFamily=Verdana;fontSize=8;align=center;" vertex="1" parent="2b4e8129b02d487f-4">
          <mxGeometry x="350" y="60" width="100" height="40" as="geometry" />
        </mxCell>
        <mxCell id="QxLrBU9hn2ij7wgbxAw1-139" value="" style="edgeStyle=orthogonalEdgeStyle;rounded=0;orthogonalLoop=1;jettySize=auto;html=1;" edge="1" parent="2b4e8129b02d487f-4" source="QxLrBU9hn2ij7wgbxAw1-114" target="QxLrBU9hn2ij7wgbxAw1-75">
          <mxGeometry relative="1" as="geometry" />
        </mxCell>
        <mxCell id="QxLrBU9hn2ij7wgbxAw1-114" value="&lt;font style=&quot;font-size: 10px;&quot;&gt;In-depth EDA&lt;/font&gt;" style="rounded=1;whiteSpace=wrap;html=1;shadow=0;labelBackgroundColor=none;strokeWidth=1;fontFamily=Verdana;fontSize=8;align=center;" vertex="1" parent="2b4e8129b02d487f-4">
          <mxGeometry x="170" y="100" width="100" height="37" as="geometry" />
        </mxCell>
        <mxCell id="QxLrBU9hn2ij7wgbxAw1-131" style="edgeStyle=orthogonalEdgeStyle;rounded=0;orthogonalLoop=1;jettySize=auto;html=1;entryX=0;entryY=0.5;entryDx=0;entryDy=0;" edge="1" parent="2b4e8129b02d487f-4" source="QxLrBU9hn2ij7wgbxAw1-128" target="QxLrBU9hn2ij7wgbxAw1-74">
          <mxGeometry relative="1" as="geometry" />
        </mxCell>
        <mxCell id="QxLrBU9hn2ij7wgbxAw1-135" style="edgeStyle=orthogonalEdgeStyle;rounded=0;orthogonalLoop=1;jettySize=auto;html=1;entryX=0;entryY=0.5;entryDx=0;entryDy=0;" edge="1" parent="2b4e8129b02d487f-4" source="QxLrBU9hn2ij7wgbxAw1-128" target="QxLrBU9hn2ij7wgbxAw1-114">
          <mxGeometry relative="1" as="geometry" />
        </mxCell>
        <mxCell id="QxLrBU9hn2ij7wgbxAw1-128" value="&lt;span style=&quot;font-size: 10px;&quot;&gt;Exploratory Data Analysis&lt;/span&gt;" style="ellipse;whiteSpace=wrap;html=1;" vertex="1" parent="2b4e8129b02d487f-4">
          <mxGeometry x="30" y="60" width="100" height="50" as="geometry" />
        </mxCell>
        <mxCell id="DYlH3hNZM6lVS_anLtEH-1" value="Feature Engineering" style="swimlane;html=1;startSize=20;horizontal=0;" parent="1" vertex="1">
          <mxGeometry x="180" y="490" width="680" height="150" as="geometry" />
        </mxCell>
        <mxCell id="QxLrBU9hn2ij7wgbxAw1-153" style="edgeStyle=orthogonalEdgeStyle;rounded=0;orthogonalLoop=1;jettySize=auto;html=1;entryX=0;entryY=0.5;entryDx=0;entryDy=0;" edge="1" parent="DYlH3hNZM6lVS_anLtEH-1" source="DYlH3hNZM6lVS_anLtEH-3" target="QxLrBU9hn2ij7wgbxAw1-150">
          <mxGeometry relative="1" as="geometry" />
        </mxCell>
        <mxCell id="DYlH3hNZM6lVS_anLtEH-3" value="&lt;font style=&quot;font-size: 10px;&quot;&gt;Feature Engineering&lt;/font&gt;" style="rounded=1;whiteSpace=wrap;html=1;shadow=0;labelBackgroundColor=none;strokeWidth=1;fontFamily=Verdana;fontSize=8;align=center;" parent="DYlH3hNZM6lVS_anLtEH-1" vertex="1">
          <mxGeometry x="40" y="60.5" width="90" height="37" as="geometry" />
        </mxCell>
        <mxCell id="QxLrBU9hn2ij7wgbxAw1-150" value="&lt;font style=&quot;font-size: 10px;&quot;&gt;Data preparation&lt;/font&gt;" style="rounded=1;whiteSpace=wrap;html=1;shadow=0;labelBackgroundColor=none;strokeWidth=1;fontFamily=Verdana;fontSize=8;align=center;" vertex="1" parent="DYlH3hNZM6lVS_anLtEH-1">
          <mxGeometry x="220" y="59.25" width="120" height="39.5" as="geometry" />
        </mxCell>
        <mxCell id="DYlH3hNZM6lVS_anLtEH-9" value="Modelling" style="swimlane;html=1;startSize=20;horizontal=0;" parent="1" vertex="1">
          <mxGeometry x="180" y="640" width="680" height="150" as="geometry" />
        </mxCell>
        <mxCell id="QxLrBU9hn2ij7wgbxAw1-164" style="edgeStyle=orthogonalEdgeStyle;rounded=0;orthogonalLoop=1;jettySize=auto;html=1;entryX=0;entryY=0.5;entryDx=0;entryDy=0;" edge="1" parent="DYlH3hNZM6lVS_anLtEH-9" source="DYlH3hNZM6lVS_anLtEH-11" target="QxLrBU9hn2ij7wgbxAw1-163">
          <mxGeometry relative="1" as="geometry" />
        </mxCell>
        <mxCell id="DYlH3hNZM6lVS_anLtEH-11" value="&lt;font style=&quot;font-size: 10px;&quot;&gt;Baseline modeling&lt;/font&gt;" style="rounded=1;whiteSpace=wrap;html=1;shadow=0;labelBackgroundColor=none;strokeWidth=1;fontFamily=Verdana;fontSize=8;align=center;" parent="DYlH3hNZM6lVS_anLtEH-9" vertex="1">
          <mxGeometry x="190" y="20" width="90" height="37" as="geometry" />
        </mxCell>
        <mxCell id="QxLrBU9hn2ij7wgbxAw1-157" style="edgeStyle=orthogonalEdgeStyle;rounded=0;orthogonalLoop=1;jettySize=auto;html=1;entryX=0;entryY=0.5;entryDx=0;entryDy=0;" edge="1" parent="DYlH3hNZM6lVS_anLtEH-9" source="QxLrBU9hn2ij7wgbxAw1-154" target="DYlH3hNZM6lVS_anLtEH-11">
          <mxGeometry relative="1" as="geometry" />
        </mxCell>
        <mxCell id="QxLrBU9hn2ij7wgbxAw1-158" style="edgeStyle=orthogonalEdgeStyle;rounded=0;orthogonalLoop=1;jettySize=auto;html=1;entryX=0;entryY=0.5;entryDx=0;entryDy=0;" edge="1" parent="DYlH3hNZM6lVS_anLtEH-9" source="QxLrBU9hn2ij7wgbxAw1-154" target="QxLrBU9hn2ij7wgbxAw1-156">
          <mxGeometry relative="1" as="geometry" />
        </mxCell>
        <mxCell id="QxLrBU9hn2ij7wgbxAw1-154" value="&lt;font style=&quot;font-size: 10px;&quot;&gt;Modeling&lt;/font&gt;" style="ellipse;whiteSpace=wrap;html=1;" vertex="1" parent="DYlH3hNZM6lVS_anLtEH-9">
          <mxGeometry x="40" y="50" width="90" height="50" as="geometry" />
        </mxCell>
        <mxCell id="QxLrBU9hn2ij7wgbxAw1-165" style="edgeStyle=orthogonalEdgeStyle;rounded=0;orthogonalLoop=1;jettySize=auto;html=1;entryX=0;entryY=0.5;entryDx=0;entryDy=0;" edge="1" parent="DYlH3hNZM6lVS_anLtEH-9" source="QxLrBU9hn2ij7wgbxAw1-156" target="QxLrBU9hn2ij7wgbxAw1-162">
          <mxGeometry relative="1" as="geometry" />
        </mxCell>
        <mxCell id="QxLrBU9hn2ij7wgbxAw1-156" value="&lt;font style=&quot;font-size: 10px;&quot;&gt;Advanced modeling&lt;/font&gt;" style="rounded=1;whiteSpace=wrap;html=1;shadow=0;labelBackgroundColor=none;strokeWidth=1;fontFamily=Verdana;fontSize=8;align=center;" vertex="1" parent="DYlH3hNZM6lVS_anLtEH-9">
          <mxGeometry x="190" y="80" width="90" height="37" as="geometry" />
        </mxCell>
        <mxCell id="QxLrBU9hn2ij7wgbxAw1-163" value="&lt;span style=&quot;font-size: 10px;&quot;&gt;Evaluation&lt;/span&gt;" style="rounded=1;whiteSpace=wrap;html=1;shadow=0;labelBackgroundColor=none;strokeWidth=1;fontFamily=Verdana;fontSize=8;align=center;" vertex="1" parent="DYlH3hNZM6lVS_anLtEH-9">
          <mxGeometry x="320" y="20" width="90" height="37" as="geometry" />
        </mxCell>
        <mxCell id="QxLrBU9hn2ij7wgbxAw1-169" value="" style="edgeStyle=orthogonalEdgeStyle;rounded=0;orthogonalLoop=1;jettySize=auto;html=1;" edge="1" parent="DYlH3hNZM6lVS_anLtEH-9" source="QxLrBU9hn2ij7wgbxAw1-162" target="QxLrBU9hn2ij7wgbxAw1-167">
          <mxGeometry relative="1" as="geometry" />
        </mxCell>
        <mxCell id="QxLrBU9hn2ij7wgbxAw1-162" value="&lt;font style=&quot;font-size: 10px;&quot;&gt;Hyperparameter tuning&lt;/font&gt;" style="rounded=1;whiteSpace=wrap;html=1;shadow=0;labelBackgroundColor=none;strokeWidth=1;fontFamily=Verdana;fontSize=8;align=center;" vertex="1" parent="DYlH3hNZM6lVS_anLtEH-9">
          <mxGeometry x="320" y="80" width="90" height="37" as="geometry" />
        </mxCell>
        <mxCell id="QxLrBU9hn2ij7wgbxAw1-171" value="" style="edgeStyle=orthogonalEdgeStyle;rounded=0;orthogonalLoop=1;jettySize=auto;html=1;" edge="1" parent="DYlH3hNZM6lVS_anLtEH-9" source="QxLrBU9hn2ij7wgbxAw1-167" target="QxLrBU9hn2ij7wgbxAw1-170">
          <mxGeometry relative="1" as="geometry" />
        </mxCell>
        <mxCell id="QxLrBU9hn2ij7wgbxAw1-167" value="&lt;span style=&quot;font-size: 10px;&quot;&gt;Evaluation&lt;/span&gt;" style="rounded=1;whiteSpace=wrap;html=1;shadow=0;labelBackgroundColor=none;strokeWidth=1;fontFamily=Verdana;fontSize=8;align=center;" vertex="1" parent="DYlH3hNZM6lVS_anLtEH-9">
          <mxGeometry x="450" y="80" width="90" height="37" as="geometry" />
        </mxCell>
        <mxCell id="QxLrBU9hn2ij7wgbxAw1-170" value="&lt;span style=&quot;font-size: 10px;&quot;&gt;Production&lt;/span&gt;" style="ellipse;whiteSpace=wrap;html=1;" vertex="1" parent="DYlH3hNZM6lVS_anLtEH-9">
          <mxGeometry x="560" y="73.5" width="100" height="50" as="geometry" />
        </mxCell>
        <mxCell id="QxLrBU9hn2ij7wgbxAw1-148" style="edgeStyle=orthogonalEdgeStyle;rounded=0;orthogonalLoop=1;jettySize=auto;html=1;entryX=0;entryY=0.5;entryDx=0;entryDy=0;" edge="1" parent="1" source="QxLrBU9hn2ij7wgbxAw1-140" target="DYlH3hNZM6lVS_anLtEH-3">
          <mxGeometry relative="1" as="geometry">
            <Array as="points">
              <mxPoint x="770" y="500" />
              <mxPoint x="210" y="500" />
              <mxPoint x="210" y="569" />
            </Array>
          </mxGeometry>
        </mxCell>
        <mxCell id="QxLrBU9hn2ij7wgbxAw1-152" style="edgeStyle=orthogonalEdgeStyle;rounded=0;orthogonalLoop=1;jettySize=auto;html=1;entryX=0.5;entryY=0;entryDx=0;entryDy=0;" edge="1" parent="1" source="QxLrBU9hn2ij7wgbxAw1-75" target="DYlH3hNZM6lVS_anLtEH-3">
          <mxGeometry relative="1" as="geometry">
            <Array as="points">
              <mxPoint x="580" y="520" />
              <mxPoint x="265" y="520" />
            </Array>
          </mxGeometry>
        </mxCell>
        <mxCell id="QxLrBU9hn2ij7wgbxAw1-160" style="edgeStyle=orthogonalEdgeStyle;rounded=0;orthogonalLoop=1;jettySize=auto;html=1;entryX=0;entryY=0.5;entryDx=0;entryDy=0;" edge="1" parent="1" source="QxLrBU9hn2ij7wgbxAw1-150" target="QxLrBU9hn2ij7wgbxAw1-154">
          <mxGeometry relative="1" as="geometry">
            <Array as="points">
              <mxPoint x="460" y="630" />
              <mxPoint x="210" y="630" />
              <mxPoint x="210" y="716" />
            </Array>
          </mxGeometry>
        </mxCell>
        <mxCell id="QxLrBU9hn2ij7wgbxAw1-166" style="edgeStyle=orthogonalEdgeStyle;rounded=0;orthogonalLoop=1;jettySize=auto;html=1;entryX=0.5;entryY=1;entryDx=0;entryDy=0;exitX=0.5;exitY=0;exitDx=0;exitDy=0;" edge="1" parent="1" source="QxLrBU9hn2ij7wgbxAw1-163" target="DYlH3hNZM6lVS_anLtEH-3">
          <mxGeometry relative="1" as="geometry">
            <Array as="points">
              <mxPoint x="545" y="650" />
              <mxPoint x="265" y="650" />
            </Array>
          </mxGeometry>
        </mxCell>
      </root>
    </mxGraphModel>
  </diagram>
</mxfile>
